<?xml version="1.0" encoding="utf-8"?>
<svg version="1.1" xmlns:xlink="http://www.w3.org/1999/xlink" width="421px" height="72px" xmlns="http://www.w3.org/2000/svg">
  <defs>
    <mask fill="white" id="clip4">
      <path d="M 0 67  L 0 5  C 0 2.2000000000000455  2.1999999999999886 0  5 0  L 226.2962962962963 0  L 285.55555555555554 0  L 416 0  C 418.79999999999995 0  421 2.2000000000000455  421 5  L 421 67  C 421 69.79999999999995  418.79999999999995 72  416 72  L 239.2592592592592 72  L 5 72  C 2.1999999999999886 72  0 69.79999999999995  0 67  Z " fill-rule="evenodd" />
    </mask>
  </defs>
  <g transform="matrix(1 0 0 1 -420 -591 )">
    <path d="M 0 67  L 0 5  C 0 2.2000000000000455  2.1999999999999886 0  5 0  L 226.2962962962963 0  L 285.55555555555554 0  L 416 0  C 418.79999999999995 0  421 2.2000000000000455  421 5  L 421 67  C 421 69.79999999999995  418.79999999999995 72  416 72  L 239.2592592592592 72  L 5 72  C 2.1999999999999886 72  0 69.79999999999995  0 67  Z " fill-rule="nonzero" fill="#ffffff" stroke="none" transform="matrix(1 0 0 1 420 591 )" />
    <path d="M 0 67  L 0 5  C 0 2.2000000000000455  2.1999999999999886 0  5 0  L 226.2962962962963 0  L 285.55555555555554 0  L 416 0  C 418.79999999999995 0  421 2.2000000000000455  421 5  L 421 67  C 421 69.79999999999995  418.79999999999995 72  416 72  L 239.2592592592592 72  L 5 72  C 2.1999999999999886 72  0 69.79999999999995  0 67  Z " stroke-width="2" stroke="#797979" fill="none" transform="matrix(1 0 0 1 420 591 )" mask="url(#clip4)" />
  </g>
</svg>